<svg xmlns="http://www.w3.org/2000/svg" width="134.387" height="97.41" viewBox="0 0 134.387 97.41"><g transform="translate(0 0)"><path d="M380.1,584.643v23.482H321.27a11.748,11.748,0,1,1,0-23.482Z" transform="translate(-294.462 -511.618)" fill="#f2f2f2"/><path d="M375.81,605.486a.9.9,0,0,1-.9.9h-60.42a12.373,12.373,0,0,1,0-24.746h60.42a.9.9,0,1,1,0,1.806h-60.42a10.567,10.567,0,0,0,0,21.133h60.42A.9.9,0,0,1,375.81,605.486Z" transform="translate(-288.727 -509.159)" fill="#6c63ff"/><path d="M414.514,613h-63.22a.181.181,0,1,1,0-.361h63.22a.181.181,0,0,1,0,.361Z" transform="translate(-328.876 -534.56)" fill="#ccc"/><path d="M414.514,637h-63.22a.181.181,0,1,1,0-.361h63.22a.181.181,0,0,1,0,.361Z" transform="translate(-328.876 -554.225)" fill="#ccc"/><path d="M414.514,661h-63.22a.181.181,0,1,1,0-.361h63.22a.181.181,0,0,1,0,.361Z" transform="translate(-328.876 -573.89)" fill="#ccc"/><path d="M414.514,685h-63.22a.181.181,0,1,1,0-.361h63.22a.181.181,0,0,1,0,.361Z" transform="translate(-328.876 -593.555)" fill="#ccc"/><path d="M658.222,429.161,643.49,447.446l-45.81-36.911a11.748,11.748,0,1,1,14.733-18.285Z" transform="translate(-527.117 -351.716)" fill="#f2f2f2"/><path d="M639.029,443.405a.9.9,0,0,1-1.27.137l-47.048-37.909a12.373,12.373,0,1,1,15.526-19.269l47.048,37.909a.9.9,0,1,1-1.133,1.406L605.1,387.771a10.567,10.567,0,1,0-13.26,16.456l47.048,37.909A.9.9,0,0,1,639.029,443.405Z" transform="translate(-521.418 -346.909)" fill="#ccc"/><path d="M711.393,451.085,662.166,411.42a.181.181,0,1,1,.227-.281L711.62,450.8a.181.181,0,1,1-.227.281Z" transform="translate(-583.688 -369.42)" fill="#ccc"/><path d="M696.336,469.773l-49.228-39.665a.181.181,0,1,1,.227-.281l49.228,39.665a.181.181,0,0,1-.227.281Z" transform="translate(-571.35 -384.732)" fill="#ccc"/><path d="M681.278,488.462,632.05,448.8a.181.181,0,1,1,.227-.281L681.5,488.181a.181.181,0,1,1-.227.281Z" transform="translate(-559.012 -400.045)" fill="#ccc"/><path d="M666.22,507.15l-49.228-39.665a.181.181,0,1,1,.227-.281l49.228,39.665a.181.181,0,0,1-.227.281Z" transform="translate(-546.674 -415.358)" fill="#ccc"/><path d="M362.206,718H228.181a.181.181,0,1,1,0-.361H362.206a.181.181,0,1,1,0,.361Z" transform="translate(-228 -620.594)" fill="#ccc"/><path d="M324.259,354.49h-2.065l-.982-7.965h3.048Z" transform="translate(-263.192 -283.933)" fill="#ffb8b8"/><path d="M307.107,387.355h3.982v2.507H304.6a2.507,2.507,0,0,1,2.508-2.507Z" transform="translate(-249.581 -317.388)" fill="#2f2e41"/><path d="M207.464,354.49H205.4l-.982-7.965h3.048Z" transform="translate(-167.494 -283.933)" fill="#ffb8b8"/><path d="M190.313,387.355H194.3v2.507h-6.49a2.507,2.507,0,0,1,2.507-2.507Z" transform="translate(-153.883 -317.388)" fill="#2f2e41"/><path d="M487.471,213.368v-.9a5.825,5.825,0,0,1,5.825-5.825h0a5.825,5.825,0,0,1,5.825,5.825v.9a4.2,4.2,0,0,1-4.2,4.2h-3.251a4.2,4.2,0,0,1-4.2-4.2Z" transform="translate(-440.603 -201.892)" fill="#2f2e41"/><circle cx="4.436" cy="4.436" r="4.436" transform="translate(48.256 7.114)" fill="#ffb8b8"/><path d="M634.488,376.475" transform="translate(-561.065 -341.05)" fill="#ffb8b8"/><path d="M383.667,326.616a1.694,1.694,0,0,1,2.579.3l3.8-.719,1,2.2-5.385.94a1.7,1.7,0,0,1-2-2.729Z" transform="translate(-355.105 -299.819)" fill="#ffb8b8"/><path d="M422.778,283.32l.05.075-6.236,4.108-10.523,3.36a.634.634,0,0,0-.436.675l.23,1.977a.632.632,0,0,0,.76.545l9.9-2.123a3.578,3.578,0,0,0,1.332-.586l7.006-4.985a1.8,1.8,0,0,0-2.036-2.972Z" transform="translate(-373.544 -264.54)" fill="#ccc"/><path d="M451.82,384.749a.816.816,0,0,1-.747-.488l-9.467-23.391a.271.271,0,0,0-.507.029l-7.723,22.772a.813.813,0,0,1-1.062.522l-2.59-.971a.811.811,0,0,1-.523-.669c-1.165-10.15,9-35.77,9.1-36.027l.028-.071,9.262,2.049.019.021c3.7,4.031,6.733,29.457,7.3,34.513a.809.809,0,0,1-.537.857l-2.286.809A.806.806,0,0,1,451.82,384.749Z" transform="translate(-392.781 -316.452)" fill="#2f2e41"/><path d="M484.547,289.831c-2.244,0-4.746-.447-5.516-2.294l-.018-.042.024-.039c.608-1,1.411-2.7.979-3.018a3.465,3.465,0,0,1-1.227-3.075,7.409,7.409,0,0,1,5.2-6.77h0a23.058,23.058,0,0,1,2.576-.663,4.386,4.386,0,0,1,3.637.9,4.43,4.43,0,0,1,1.643,3.409c.032,3.275-.472,7.836-3.055,10.968a.8.8,0,0,1-.476.277A22.076,22.076,0,0,1,484.547,289.831Z" transform="translate(-433.489 -256.955)" fill="#ccc"/><path d="M505.757,344.742a1.726,1.726,0,0,1,2.109-1.2,1.7,1.7,0,0,1,.261.1l2.888-2.628,2.008,1.353-4.129,3.654a1.723,1.723,0,0,1-1.953.828,1.7,1.7,0,0,1-1.184-2.1Z" transform="translate(-455.534 -311.989)" fill="#ffb8b8"/><path d="M523.781,297.52a.811.811,0,0,1-.514-.183l-1.139-.931a.813.813,0,0,1,.02-1.274l4.776-3.663a.272.272,0,0,0,.051-.378l-2.948-3.9a2.4,2.4,0,0,1,.16-3.091h0a2.393,2.393,0,0,1,3.231-.258l.019.02,3.078,4.408a2.744,2.744,0,0,1-.065,4.369l-6.186,4.721A.814.814,0,0,1,523.781,297.52Z" transform="translate(-468.756 -264.733)" fill="#ccc"/><path d="M497.965,219.621v-2.2l3.93-1.716,3.747,1.716v2.2a.361.361,0,0,1-.361.361h-6.954A.361.361,0,0,1,497.965,219.621Z" transform="translate(-449.202 -209.319)" fill="#2f2e41"/><path d="M518.063,185.4a4.053,4.053,0,0,1,2.43-4.7,5.591,5.591,0,0,1,5.454.989,9.2,9.2,0,0,1,2.95,4.893,27.409,27.409,0,0,1,.684,5.76,3.871,3.871,0,1,1-3.71,1.374,4.764,4.764,0,0,0-5.543-7.389C519.242,186.778,517.878,185.6,518.063,185.4Z" transform="translate(-465.55 -180.357)" fill="#2f2e41"/><path d="M344.742,236.951a18.866,18.866,0,0,1-7.649-1.675.808.808,0,0,1-.479-.741v-6.578a.814.814,0,0,1,.813-.813h14.631a.814.814,0,0,1,.813.813v6.578a.808.808,0,0,1-.479.741h0A18.866,18.866,0,0,1,344.742,236.951Z" transform="translate(-316.995 -218.692)" fill="#6c63ff"/><path d="M325.286,202.393a.814.814,0,0,1-.316-.064l-11.6-4.895a.813.813,0,0,1,.028-1.509l11.6-4.4a.81.81,0,0,1,.58,0l11.447,4.4a.813.813,0,0,1,.028,1.506l-11.447,4.895A.814.814,0,0,1,325.286,202.393Z" transform="translate(-297.542 -189.463)" fill="#6c63ff"/><circle cx="1.084" cy="1.084" r="1.084" transform="translate(19.89 14.863)" fill="#3f3d56"/><path d="M337.841,219.26l-11.447,4.895a.723.723,0,0,1-.565,0l-11.6-4.895a.709.709,0,0,1-.345-.3.722.722,0,0,0,.345,1.026l11.6,4.895a.723.723,0,0,0,.565,0l11.447-4.895a.722.722,0,0,0,.342-1.025A.709.709,0,0,1,337.841,219.26Z" transform="translate(-298.29 -211.985)" opacity="0.2"/><path d="M343.8,228.9a.181.181,0,0,0,.181-.181v-6.044l5.957-2.17a.181.181,0,1,0,.005-.361l-5.957,2.17a.354.354,0,0,0-.259.1.359.359,0,0,0-.108.257v6.044A.181.181,0,0,0,343.8,228.9Z" transform="translate(-322.734 -212.956)" fill="#3f3d56"/></g></svg>