<svg xmlns="http://www.w3.org/2000/svg" width="220" height="276.155" viewBox="0 0 220 276.155">
  <g id="Group_267" data-name="Group 267" transform="translate(0)">
    <path id="Path_585" data-name="Path 585" d="M397.749,202.97H345.59V156.562h52.159Z" transform="translate(-344.52 -144.125)" fill="#fff"/>
    <path id="Path_586" data-name="Path 586" d="M397.39,202.611h-54.3V154.063h54.3Zm-52.159-2.141h50.018V156.2H345.231Z" transform="translate(-343.09 -142.696)" fill="#ccc"/>
    <path id="Path_587" data-name="Path 587" d="M137.407,559.037h-5.249l-2.5-20.247h7.748Z" transform="translate(-74.144 -308.098)" fill="#ffb7b7"/>
    <path id="Path_588" data-name="Path 588" d="M471.365,716.391H454.439v-.214a6.588,6.588,0,0,1,6.587-6.588h10.339Z" transform="translate(-406.764 -460.364)" fill="#2f2e41"/>
    <path id="Path_589" data-name="Path 589" d="M246.258,552.136l-5.127,1.126-6.781-19.241,7.567-1.661Z" transform="translate(-134.009 -304.422)" fill="#ffb7b7"/>
    <path id="Path_590" data-name="Path 590" d="M588.508,708.126l-16.532,3.629-.046-.209a6.588,6.588,0,0,1,5.022-7.847h0l10.1-2.217Z" transform="translate(-473.86 -455.728)" fill="#2f2e41"/>
    <path id="Path_591" data-name="Path 591" d="M413.617,509.512,387.689,515.1c-4.973-9.374-6.09-19.167-6.132-28.427l25.928-5.593a58.06,58.06,0,0,0,6.132,28.427Z" transform="translate(-365.087 -329.698)" fill="#6c63ff"/>
    <path id="Path_592" data-name="Path 592" d="M51.987,373.8l-.221-.985L65.24,370.1l.221.985Z" transform="translate(-29.602 -211.634)" fill="#fff"/>
    <path id="Path_593" data-name="Path 593" d="M54.051,383l-.221-.984L67.3,379.3l.221.985Z" transform="translate(-30.782 -216.894)" fill="#fff"/>
    <path id="Path_594" data-name="Path 594" d="M56.115,392.2l-.221-.985,13.474-2.722.221.984Z" transform="translate(-31.962 -222.155)" fill="#fff"/>
    <path id="Path_595" data-name="Path 595" d="M58.179,401.4l-.221-.985,13.474-2.722.221.985Z" transform="translate(-33.143 -227.414)" fill="#fff"/>
    <path id="Path_596" data-name="Path 596" d="M60.243,410.6l-.221-.984L73.5,406.892l.221.984Z" transform="translate(-34.323 -232.675)" fill="#fff"/>
    <path id="Path_597" data-name="Path 597" d="M582.239,466.4a4.978,4.978,0,0,0-2.133-7.329l.235-11.373-6.877-1.828-.106,16.066a5,5,0,0,0,8.881,4.465Z" transform="translate(-474.594 -309.559)" fill="#ffb7b7"/>
    <path id="Path_598" data-name="Path 598" d="M402.792,207.249l-26.517-.6c-2.652-10.275-1.458-20.058.658-29.073l26.517.6A58.059,58.059,0,0,0,402.792,207.249Z" transform="translate(-361.195 -156.141)" fill="#6c63ff"/>
    <path id="Path_599" data-name="Path 599" d="M47.368,63.719l.014-1.009L61.12,63.2l-.015,1.009Z" transform="translate(-27.087 -35.86)" fill="#fff"/>
    <path id="Path_600" data-name="Path 600" d="M47.233,73.146l.014-1.009,13.738.491-.015,1.009Z" transform="translate(-27.01 -41.25)" fill="#fff"/>
    <path id="Path_601" data-name="Path 601" d="M47.1,82.572l.015-1.009,13.738.491-.015,1.009Z" transform="translate(-26.932 -46.64)" fill="#fff"/>
    <path id="Path_602" data-name="Path 602" d="M46.962,92l.015-1.009,13.738.491L60.7,92.489Z" transform="translate(-26.855 -52.031)" fill="#fff"/>
    <path id="Path_603" data-name="Path 603" d="M46.827,101.425l.015-1.009,13.738.491-.014,1.009Z" transform="translate(-26.777 -57.421)" fill="#fff"/>
    <circle id="Ellipse_106" data-name="Ellipse 106" cx="9.616" cy="9.616" r="9.616" transform="translate(44.637 0)" fill="#6c63ff"/>
    <path id="Path_604" data-name="Path 604" d="M121.046,21.433,117.4,16.982l.573-.468,3.015,3.686,5.269-7.728.611.417Z" transform="translate(-67.136 -7.131)" fill="#fff"/>
    <path id="Path_605" data-name="Path 605" d="M784.749,393.97H732.59V347.562h52.159Z" transform="translate(-565.82 -253.345)" fill="#fff"/>
    <path id="Path_606" data-name="Path 606" d="M784.39,393.611h-54.3V345.063h54.3Zm-52.159-2.141h50.018V347.2H732.231Z" transform="translate(-564.39 -251.916)" fill="#e6e6e6"/>
    <path id="Path_607" data-name="Path 607" d="M784.749,202.97H732.59V156.562h52.159Z" transform="translate(-565.82 -144.125)" fill="#fff"/>
    <path id="Path_608" data-name="Path 608" d="M784.39,202.611h-54.3V154.063h54.3Zm-52.159-2.141h50.018V156.2H732.231Z" transform="translate(-564.39 -142.696)" fill="#e6e6e6"/>
    <path id="Path_609" data-name="Path 609" d="M590.749,393.97H538.59V347.562h52.159Z" transform="translate(-454.884 -253.345)" fill="#fff"/>
    <path id="Path_610" data-name="Path 610" d="M590.39,393.611h-54.3V345.063h54.3Zm-52.159-2.141h50.018V347.2H538.231Z" transform="translate(-453.454 -251.916)" fill="#ccc"/>
    <path id="Path_611" data-name="Path 611" d="M397.749,393.97H345.59V347.562h52.159Z" transform="translate(-344.52 -253.345)" fill="#fff"/>
    <path id="Path_612" data-name="Path 612" d="M397.39,393.611h-54.3V345.063h54.3Zm-52.159-2.141h50.018V347.2H345.231Z" transform="translate(-343.09 -251.916)" fill="#e6e6e6"/>
    <path id="Path_613" data-name="Path 613" d="M590.749,202.97H538.59V156.562h52.159Z" transform="translate(-454.884 -144.125)" fill="#fff"/>
    <path id="Path_614" data-name="Path 614" d="M590.39,202.611h-54.3V154.063h54.3Zm-52.159-2.141h50.018V156.2H538.231Z" transform="translate(-453.454 -142.696)" fill="#e6e6e6"/>
    <path id="Path_615" data-name="Path 615" d="M643.5,751.236l6.968-13.5c12.859,2.115,15.128,1.683,26.365.224l2.988,14.657a161.914,161.914,0,0,0-36.321-1.376Z" transform="translate(-514.874 -476.457)" fill="#e6e6e6"/>
    <path id="Path_616" data-name="Path 616" d="M368.012,625.929l-.218-7.593.8.03.218,7.593Z" transform="translate(-210.317 -353.586)" fill="#fff"/>
    <path id="Path_617" data-name="Path 617" d="M360.555,625.646l-.219-7.593.8.03.218,7.593Z" transform="translate(-206.053 -353.424)" fill="#fff"/>
    <path id="Path_618" data-name="Path 618" d="M353.1,625.364l-.218-7.593.8.03.219,7.593Z" transform="translate(-201.788 -353.262)" fill="#fff"/>
    <path id="Path_619" data-name="Path 619" d="M466.89,448.389s-2.531,1.012,0,39.478l1.012,62.759h10.122l11.393-85.29,13.913,39.739,12.653,47.07,10.123-2.53s-10.629-95.151-19.739-101.225S466.89,448.389,466.89,448.389Z" transform="translate(-413.24 -309.458)" fill="#2f2e41"/>
    <circle id="Ellipse_107" data-name="Ellipse 107" cx="10.52" cy="10.52" r="10.52" transform="translate(63.457 39.98)" fill="#ffb8b8"/>
    <path id="Path_620" data-name="Path 620" d="M495.38,281.9s-9.11-4.555-17.714-1.518a50.5,50.5,0,0,0-13.159,6.58l5.567,29.355-7.592,39.478s38.972-3.037,42.514,0,3.543-3.543,3.543-3.543L505.5,314.8l5.567-23.788Z" transform="translate(-411.363 -214.331)" fill="#3f3d56"/>
    <path id="Path_621" data-name="Path 621" d="M491.108,225.138l2.227,5.69c.913,2.332,1.958,4.826,4.1,6.127,2.641,1.607,6.168.823,8.723-.917a13.621,13.621,0,0,0-6.131-24.792l-.106,1.9-2.337-1.959a2.272,2.272,0,0,1-3.531.5c.614,1.272-.095,2.824-1.118,3.8-1.257,1.2-4.852,2.637-4.7,4.777C488.329,221.7,490.529,223.658,491.108,225.138Z" transform="translate(-426.083 -175.364)" fill="#2f2e41"/>
    <path id="Path_622" data-name="Path 622" d="M438.511,465.783a4.978,4.978,0,0,0,.01-7.633l3.419-10.85-6.087-3.686L431.241,459a5,5,0,0,0,7.27,6.779Z" transform="translate(-392.944 -308.271)" fill="#ffb7b7"/>
    <path id="Path_623" data-name="Path 623" d="M452.5,297.142H448.96s-5.567,3.543-5.567,8.6-8.1,64.278-8.1,64.278l8.6,1.518,7.592-41.5,5.567-11.135Z" transform="translate(-395.816 -224.513)" fill="#3f3d56"/>
    <path id="Path_624" data-name="Path 624" d="M553.5,306.6h9.616s3.037,3.037,4.555,10.122,3.037,34.923,3.037,34.923L569.7,376.95h-7.592l-1.012-32.9-5.061-21.257Z" transform="translate(-463.411 -229.921)" fill="#3f3d56"/>
    <path id="Path_625" data-name="Path 625" d="M508.547,725.431H345.416a.428.428,0,0,1,0-.856H508.547a.428.428,0,0,1,0,.856Z" transform="translate(-344.176 -468.934)" fill="#cbcbcb"/>
  </g>
</svg>
