<svg xmlns="http://www.w3.org/2000/svg" width="187.785" height="122.039" viewBox="0 0 187.785 122.039"><g transform="translate(-2.215 -7.748)"><path d="M105.472,101.641c-4.684-1.673-12.338-1.757-15.725-3.053-2.342-.92-6.064-1.924-7.277-3.388s-1.213-11.92-1.213-11.92a19.255,19.255,0,0,0,4.14-5.855c1.213-3.053,2.007-11.5,2.007-11.5s2.76,1.171,3.848-4.35c.92-4.768,2.677-7.277,2.217-10.79-.5-3.513-2.426-2.677-2.426-2.677s2.426-3.555,2.426-15.642c0-12.463-9.41-24.717-27.018-24.717-17.566,0-27.059,12.3-27.059,24.717,0,12.087,2.384,15.642,2.384,15.642s-1.966-.836-2.426,2.677c-.5,3.513,1.255,6.023,2.217,10.79,1.087,5.562,3.848,4.35,3.848,4.35s.795,8.406,2.008,11.5a19.255,19.255,0,0,0,4.14,5.855s0,10.456-1.213,11.92-4.935,2.468-7.277,3.346c-3.346,1.3-11,1.464-15.725,3.137-4.684,1.673-19.155,9.285-19.155,28.105H124.585A29.458,29.458,0,0,0,105.472,101.641Z" transform="translate(29.573 0)" fill="#4169e1"/><path d="M47.593,64.156s10-.335,13.969-3.89c-6.483-9.828-2.969-21.288-4.308-31.995-1.338-10.665-7.4-17.064-19.531-17.064h-.167c-11.71,0-18.026,6.357-19.364,17.064-1.338,10.665,2.384,23.421-4.266,31.995,3.973,3.6,14.011,3.471,14.011,3.471h0s.418,6.023-.418,7.026-3.3,1.966-5.019,2.3a97.04,97.04,0,0,0-10.832,3.011C8.4,77.2,2.215,83.269,2.215,91.633H35.8c.92-3.346,7.235-9.327,13.383-12.463,3.764-1.924,7.486-1.8,10.33-2.175,0,0,1.589-2.509-3.639-3.471,0,0-7.194-1.8-8.03-2.8C47.049,69.8,47.593,64.156,47.593,64.156Z" transform="translate(0 17.118)" fill="#4169e1"/><path d="M37.777,64.156s-10-.335-13.969-3.89c6.483-9.828,2.969-21.288,4.308-31.995,1.338-10.665,7.4-17.064,19.531-17.064h.167c11.71,0,18.026,6.357,19.364,17.064,1.338,10.665-2.384,23.421,4.266,31.995-3.973,3.6-14.011,3.471-14.011,3.471h0s-.418,6.023.418,7.026,3.3,1.966,5.019,2.3A97.04,97.04,0,0,1,73.7,76.075c3.262,1.129,9.452,7.194,9.452,15.558H49.571c-.92-3.346-7.235-9.327-13.383-12.463-3.764-1.924-7.486-1.8-10.33-2.175,0,0-1.589-2.509,3.639-3.471,0,0,7.194-1.8,8.03-2.8C38.32,69.8,37.777,64.156,37.777,64.156Z" transform="translate(106.845 17.118)" fill="#4169e1"/></g></svg>