<svg xmlns="http://www.w3.org/2000/svg" width="21" height="16.8" viewBox="0 0 21 16.8" class="fill-red-500">
    <path
            class="fill-red-500"
            d="M6.825,11.55a.751.751,0,0,0-.232.036,4.328,4.328,0,0,1-1.343.227,4.332,4.332,0,0,1-1.344-.227.749.749,0,0,0-.231-.036A3.675,3.675,0,0,0,0,15.245,1.571,1.571,0,0,0,1.575,16.8h7.35A1.571,1.571,0,0,0,10.5,15.245,3.675,3.675,0,0,0,6.825,11.55ZM5.25,10.5A3.15,3.15,0,1,0,2.1,7.35,3.15,3.15,0,0,0,5.25,10.5ZM19.425,0H6.825A1.6,1.6,0,0,0,5.25,1.627V3.15a4.152,4.152,0,0,1,2.1.584V2.1H18.9v9.45H16.8V9.45H12.6v2.1H10.1a4.182,4.182,0,0,1,1.3,2.1h8.024A1.6,1.6,0,0,0,21,12.023V1.627A1.6,1.6,0,0,0,19.425,0Z"
    />
</svg>
