<svg xmlns="http://www.w3.org/2000/svg" width="19.897" height="22.739" viewBox="0 0 19.897 22.739"><path d="M19.9,15.989V1.066A1.063,1.063,0,0,0,18.831,0H4.264A4.265,4.265,0,0,0,0,4.264V18.476a4.265,4.265,0,0,0,4.264,4.264H18.831A1.063,1.063,0,0,0,19.9,21.673v-.711a1.074,1.074,0,0,0-.4-.831,9.9,9.9,0,0,1,0-3.318A1.058,1.058,0,0,0,19.9,15.989ZM5.685,5.951a.267.267,0,0,1,.266-.266h9.415a.267.267,0,0,1,.266.266V6.84a.267.267,0,0,1-.266.266H5.951a.267.267,0,0,1-.266-.266Zm0,2.842a.267.267,0,0,1,.266-.266h9.415a.267.267,0,0,1,.266.266v.888a.267.267,0,0,1-.266.266H5.951a.267.267,0,0,1-.266-.266ZM16.939,19.9H4.264a1.421,1.421,0,0,1,0-2.842H16.939A15.989,15.989,0,0,0,16.939,19.9Z"/></svg>