<svg xmlns="http://www.w3.org/2000/svg" width="24.112" height="18.75" viewBox="0 0 24.112 18.75"><path d="M11.735,7.118,4.018,13.474v6.86a.67.67,0,0,0,.67.67l4.691-.012a.67.67,0,0,0,.666-.67V16.316a.67.67,0,0,1,.67-.67h2.679a.67.67,0,0,1,.67.67v4a.67.67,0,0,0,.67.672L19.421,21a.67.67,0,0,0,.67-.67V13.469L12.376,7.118A.51.51,0,0,0,11.735,7.118Zm12.19,4.32-3.5-2.884v-5.8a.5.5,0,0,0-.5-.5H17.58a.5.5,0,0,0-.5.5V5.8L13.33,2.712a2.009,2.009,0,0,0-2.553,0L.181,11.438a.5.5,0,0,0-.067.707l1.067,1.3a.5.5,0,0,0,.708.068L11.735,5.4a.51.51,0,0,1,.64,0l9.846,8.109a.5.5,0,0,0,.707-.067L24,12.147a.5.5,0,0,0-.071-.709Z" transform="translate(0.001 -2.254)" fill="#fff"/></svg>