<svg xmlns="http://www.w3.org/2000/svg" width="124.198" height="68" viewBox="0 0 124.198 68"><g transform="translate(0 -0.115)"><path d="M232.14,532.09a20.217,20.217,0,0,1-15.122-19.876,8.124,8.124,0,0,1,.61-3.3,3.739,3.739,0,0,1,2.457-2.152,3.869,3.869,0,0,1,3.368,1.121,10.28,10.28,0,0,1,2.025,3.065,67.994,67.994,0,0,1,6.657,21.173Z" transform="translate(-209.527 -464.5)" fill="#f2f2f2"/><path d="M234.649,507.625l2.282,5.186L239.214,518c.723,1.642,1.444,3.285,2.191,4.917s1.506,3.223,2.324,4.8,1.683,3.13,2.624,4.636q.176.281.355.561c.083.129.289.009.206-.121-.959-1.5-1.843-3.038-2.672-4.609s-1.606-3.174-2.353-4.787-1.473-3.258-2.194-4.894l-2.274-5.167-2.282-5.186-.284-.645c-.062-.14-.268-.019-.206.121Z" transform="translate(-224.637 -465.144)" fill="#fff"/><path d="M233.459,622.957a11.83,11.83,0,0,1-13.217-6.237,4.754,4.754,0,0,1-.575-1.88,2.188,2.188,0,0,1,.695-1.781,2.264,2.264,0,0,1,2.051-.327,6.015,6.015,0,0,1,1.879,1.045,39.788,39.788,0,0,1,9.172,9.2Z" transform="translate(-211.798 -555.33)" fill="#f2f2f2"/><path d="M222.822,616.7l2.585,2.076,2.585,2.076c.819.658,1.637,1.316,2.465,1.961s1.652,1.267,2.5,1.866,1.719,1.171,2.614,1.7l.336.2c.078.045.153-.073.075-.118-.9-.517-1.777-1.08-2.632-1.672s-1.69-1.214-2.514-1.85-1.644-1.294-2.46-1.949l-2.575-2.069-2.585-2.076-.322-.258c-.07-.056-.144.062-.075.118Z" transform="translate(-214.482 -558.711)" fill="#fff"/><path d="M884.781,470.921A28.193,28.193,0,0,0,905.87,443.2a11.329,11.329,0,0,0-.851-4.607,5.214,5.214,0,0,0-3.427-3,5.4,5.4,0,0,0-4.7,1.563,14.337,14.337,0,0,0-2.823,4.274,94.821,94.821,0,0,0-9.284,29.527Z" transform="translate(-782.075 -403.461)" fill="#f2f2f2"/><path d="M905,436.8l-3.183,7.232-3.182,7.232c-1.008,2.29-2.014,4.582-3.056,6.857-1.033,2.255-2.1,4.495-3.24,6.7s-2.347,4.365-3.66,6.466q-.245.392-.5.782c-.115.18-.4.013-.288-.168,1.338-2.085,2.571-4.237,3.727-6.428s2.239-4.426,3.281-6.676,2.055-4.543,3.059-6.825l3.171-7.205,3.183-7.232.4-.9c.086-.2.373-.026.287.168Z" transform="translate(-784.723 -404.36)" fill="#fff"/><path d="M894.056,597.638a16.5,16.5,0,0,0,18.432-8.7,6.629,6.629,0,0,0,.8-2.622,3.051,3.051,0,0,0-.969-2.483,3.157,3.157,0,0,0-2.86-.456,8.389,8.389,0,0,0-2.62,1.457,55.488,55.488,0,0,0-12.791,12.824Z" transform="translate(-790.022 -530.128)" fill="#f2f2f2"/><path d="M913.721,588.917l-3.6,2.9-3.6,2.9c-1.142.917-2.283,1.835-3.438,2.735s-2.3,1.766-3.491,2.6-2.4,1.632-3.646,2.369q-.233.138-.468.272c-.108.062-.213-.1-.1-.165,1.258-.722,2.478-1.506,3.67-2.331s2.357-1.693,3.506-2.58,2.293-1.8,3.431-2.718l3.592-2.885,3.6-2.9.449-.36c.1-.078.2.087.1.165Z" transform="translate(-791.111 -534.843)" fill="#fff"/><path d="M316.336,355.806h0l-1.189.994-8.178,1.817a2.067,2.067,0,1,0,1.55,3.833l5.209-.877a6.394,6.394,0,0,0,.853-.2c.11-.033.218-.07.325-.108a33.269,33.269,0,0,1,1.942-5.883Z" transform="translate(-285.546 -334.765)" fill="#2f2e41"/><path d="M814.271,343.839l-1.134-.007-.606,0-3.472-6.07a1.708,1.708,0,0,0,.076-.2,1.543,1.543,0,0,0-1.6-1.995,1.4,1.4,0,0,0-.328.039,33.4,33.4,0,0,1,3.789,11.145,1.942,1.942,0,0,0,.3.06,6.425,6.425,0,0,0,1.588-.054,12.68,12.68,0,0,1,1.733-.19Z" transform="translate(-715.559 -317.779)" fill="#a0616a"/><path d="M851.533,390.862l-4.167-.579a.642.642,0,0,0-.7.456.657.657,0,0,0-.02.091l-.334,2.4a.646.646,0,0,0,.546.724l4.167.579a1.854,1.854,0,1,0,.512-3.672Z" transform="translate(-749.083 -364.687)" fill="#6c63ff"/><path d="M429.943,240.533a33.546,33.546,0,0,0-3.762-11.243A33.978,33.978,0,0,0,365,232.541h0a33.459,33.459,0,0,0-1.755,5.564,33.938,33.938,0,1,0,66.7,2.427ZM396.37,279.187a33.674,33.674,0,1,1,33.652-33.652A33.69,33.69,0,0,1,396.37,279.187Z" transform="translate(-334.209 -211.5)" fill="#3f3d56"/><path d="M480.323,339.769a7.128,7.128,0,1,1,5.008-2.055A7.128,7.128,0,0,1,480.323,339.769Zm0-13.974a6.845,6.845,0,1,0,6.844,6.845A6.845,6.845,0,0,0,480.323,325.795Z" transform="translate(-429.178 -309.155)" fill="#3f3d56"/><path d="M634.313,339.759a7.13,7.13,0,1,1,7.13-7.13A7.13,7.13,0,0,1,634.313,339.759Zm0-13.974a6.844,6.844,0,1,0,6.844,6.844A6.844,6.844,0,0,0,634.313,325.785Z" transform="translate(-561.208 -309.146)" fill="#3f3d56"/><path d="M498.579,391.62a6.989,6.989,0,0,1-9.816,0,5.42,5.42,0,0,1,9.816,0Z" transform="translate(-442.526 -363.163)" fill="#3f3d56"/><path d="M652.579,391.62a6.989,6.989,0,0,1-9.816,0,5.42,5.42,0,0,1,9.816,0Z" transform="translate(-574.567 -363.163)" fill="#3f3d56"/><path d="M568.183,448.926c0-.788,2.554-1.426,5.7-1.426s5.7.638,5.7,1.426-2.554,3.707-5.7,3.707S568.183,449.713,568.183,448.926Z" transform="translate(-510.621 -413.75)" fill="#3f3d56"/><circle cx="2.424" cy="2.424" r="2.424" transform="translate(41.806 30.114)" fill="#ff6584"/><circle cx="2.424" cy="2.424" r="2.424" transform="translate(77.667 30.185)" fill="#ff6584"/><path d="M197.857,422.817h1.748l.832-6.743h-2.58Z" transform="translate(-169.644 -356.647)" fill="#ffb8b8"/><path d="M0,0H5.494V2.123H2.123A2.123,2.123,0,0,1,0,0Z" transform="translate(33.332 68.079) rotate(179.997)" fill="#2f2e41"/><path d="M136.857,422.817h1.748l.832-6.743h-2.58Z" transform="translate(-117.342 -356.647)" fill="#ffb8b8"/><path d="M0,0H5.494V2.123H2.123A2.123,2.123,0,0,1,0,0Z" transform="translate(24.634 68.079) rotate(179.997)" fill="#2f2e41"/><path d="M308.381,482.131l1.537,12.175q.317,2.511.443,5.04l.414,8.28a.57.57,0,0,1-.57.6h-2.332a.57.57,0,0,1-.564-.485l-2.1-13.819a.285.285,0,0,0-.562-.01l-2.527,13.534a.57.57,0,0,1-.517.454l-2.147.136a.57.57,0,0,1-.612-.587l.693-22.182Z" transform="translate(-279.69 -443.443)" fill="#2f2e41"/><circle cx="3.502" cy="3.502" r="3.502" transform="translate(18.38 14.342)" fill="#ffb8b8"/><path d="M287.042,388.156c.856,2,4.563,3.422,5.418.57.662-2.2,3.282-3.131,4.439-3.438a.573.573,0,0,0,.408-.693l-3.233-12.7a4.46,4.46,0,0,0-8.717.337,19.558,19.558,0,0,0-.227,2.247A42.892,42.892,0,0,0,287.042,388.156Z" transform="translate(-267.905 -346.046)" fill="#6c63ff"/><path d="M391.882,424.379a1.434,1.434,0,0,0-2.12.585l-5.073-.478,1.244,2.338,4.627.1a1.442,1.442,0,0,0,1.322-2.54Z" transform="translate(-353.292 -393.708)" fill="#ffb8b8"/><path d="M318.232,390.372a.642.642,0,0,1-.478.213l-6.622-.151a6.613,6.613,0,0,1-4.356-1.642l-3.971-3.482a2.067,2.067,0,0,1,1.99-3.624l6.576,5.189,6.4,1.234a.644.644,0,0,1,.486.554l.131,1.211a.643.643,0,0,1-.161.5Z" transform="translate(-282.165 -357.101)" fill="#2f2e41"/><path d="M288.809,309.825a.571.571,0,0,0,.842-.338l0-.008a2.731,2.731,0,0,0-.007-.816,1.023,1.023,0,0,1,.194-.773c.346-.374.962-.176,1.463-.27a1.235,1.235,0,0,0,.961-1.319c-.007-.057-.018-.113-.031-.17a.952.952,0,0,1,.988-1.152c.506.029,1.052.182,1.471-.193a1.085,1.085,0,0,0,.26-1.169,2.2,2.2,0,0,0-1.583-1.25,5.792,5.792,0,0,0-4.91.806,2.6,2.6,0,0,0-1,1.156,1.266,1.266,0,0,0,.313,1.415,2.614,2.614,0,0,0-.605,2.539C287.369,308.928,288.326,309.547,288.809,309.825Z" transform="translate(-269.584 -289.116)" fill="#2f2e41"/><path d="M648.62,422.629h-1.748l-.832-6.743h2.58Z" transform="translate(-553.92 -356.485)" fill="#a0616a"/><path d="M630.352,461.671h3.371v2.123h-5.494A2.123,2.123,0,0,1,630.352,461.671Z" transform="translate(-538.649 -395.742)" fill="#2f2e41"/><path d="M735.62,422.629h-1.748l-.832-6.743h2.58Z" transform="translate(-628.514 -356.485)" fill="#a0616a"/><path d="M717.352,461.671h3.371v2.123h-5.494a2.123,2.123,0,0,1,2.123-2.123Z" transform="translate(-613.243 -395.742)" fill="#2f2e41"/><path d="M809.672,471.1l-.057,0-2.474-.2a.713.713,0,0,1-.647-.824l3.751-23.2.251-3.273a.709.709,0,0,1,.558-.642l3.773-.825a.708.708,0,0,1,.741.294l.92,1.345a15.753,15.753,0,0,0,1.176,1.5,8.052,8.052,0,0,1,1.862,5.1,18.051,18.051,0,0,0,.276,2.646l3.038,16.364a.713.713,0,0,1-.633.822l-2.345.178a.71.71,0,0,1-.756-.525l-4.16-15.471a.143.143,0,0,0-.276,0l-4.309,16.191A.714.714,0,0,1,809.672,471.1Z" transform="translate(-714.943 -409.136)" fill="#2f2e41"/><circle cx="3.502" cy="3.502" r="3.502" transform="translate(97.807 15.48)" fill="#a0616a"/><path d="M832.721,388.811l-.072-5c-.267-3.2,1.15-4.878,2.385-5.723a2.84,2.84,0,0,1,2.2-.42l2.756.6a2.9,2.9,0,0,1,1.862,1.326,2.712,2.712,0,0,1,.31,2.14,2.937,2.937,0,0,1-1.2,1.64,6.4,6.4,0,0,0-2.537,4.508l0,.058Z" transform="translate(-737.347 -353.818)" fill="#6c63ff"/><path d="M762.969,413.8a1.574,1.574,0,0,1-2.352.068c-1.381-1.449.877-3.624,2.263-2.172h0a1.519,1.519,0,0,1,.136.16l6.991-.174.834-1.526,2.565,1c-.492.763-1.058,3.76-2.345,3.614C770.891,414.77,763.141,413.812,762.969,413.8Z" transform="translate(-675.245 -381.73)" fill="#a0616a"/><path d="M831.968,388.653l-1.954-1.434a.642.642,0,0,1-.138-.9l2.489-3.391a1.854,1.854,0,0,1,2.989,2.193l-2.489,3.391A.642.642,0,0,1,831.968,388.653Z" transform="translate(-734.893 -357.738)" fill="#6c63ff"/><path d="M849.045,312.9a5.718,5.718,0,0,1-1.528.263,1.927,1.927,0,0,1-1.408-.553,1.762,1.762,0,0,1-.106-2.056,2.886,2.886,0,0,1,1.79-1.2,8.544,8.544,0,0,1,2.2-.161,2.726,2.726,0,0,1,3.047.064,4.318,4.318,0,0,1,1.679,2.688,10.9,10.9,0,0,1,.094,3.233c-.048.591,0,1.359.566,1.54a1.019,1.019,0,0,0,1-.369c.255-.274.434-.614.7-.876a2.19,2.19,0,0,1,2.234-.405,3.6,3.6,0,0,1,1.774,1.538A5.353,5.353,0,0,1,855,324.567a7.7,7.7,0,0,1-4.321-3.989,13.174,13.174,0,0,1-1.429-7.475Z" transform="translate(-748.587 -294.788)" fill="#2f2e41"/><path d="M288.555,686.785H164.643a.143.143,0,0,1,0-.285H288.555a.143.143,0,0,1,0,.285Z" transform="translate(-164.5 -618.67)" fill="#3f3d56"/></g></svg>